<svg xmlns="http://www.w3.org/2000/svg" viewBox="0 0 32 32" fill="none">
  <circle cx="16" cy="16" r="15" stroke="#00d9ff" stroke-width="1.5" opacity="0.6"/>
  <path d="M10 8 C10 8, 16 14, 22 8 C22 8, 16 14, 10 20 C10 20, 16 14, 22 20 C22 20, 16 26, 10 20" stroke="#00d9ff" stroke-width="1.5" fill="none"/>
  <path d="M22 8 C22 8, 16 14, 10 8 C10 8, 16 14, 22 20 C22 20, 16 14, 10 20 C10 20, 16 26, 22 20" stroke="#fbbf24" stroke-width="1.5" fill="none" opacity="0.6"/>
  <circle cx="16" cy="11" r="1.5" fill="#00d9ff"/>
  <circle cx="16" cy="16" r="1.5" fill="#00d9ff"/>
  <circle cx="16" cy="21" r="1.5" fill="#fbbf24"/>
</svg>
